<?xml version="1.0" standalone="no"?>
<!DOCTYPE svg PUBLIC "-//W3C//DTD SVG 20010904//EN"
 "http://www.w3.org/TR/2001/REC-SVG-20010904/DTD/svg10.dtd">
<svg version="1.0" xmlns="http://www.w3.org/2000/svg"
 width="260.000000pt" height="260.000000pt" viewBox="0 0 260.000000 260.000000"
 preserveAspectRatio="xMidYMid meet">
<metadata>
Created by potrace 1.14, written by Peter Selinger 2001-2017
</metadata>
<g transform="translate(0.000000,260.000000) scale(0.100000,-0.100000)"
fill="#000000" stroke="none">
<path d="M1135 2093 c-16 -3 -46 -8 -66 -14 -39 -10 -42 -15 -54 -114 -3 -22
-7 -60 -11 -85 -3 -25 -5 -55 -5 -68 1 -18 -8 -27 -37 -38 -20 -8 -64 -28 -97
-43 l-60 -28 -117 90 c-77 59 -121 86 -130 81 -79 -46 -253 -211 -306 -289
-15 -22 -30 -41 -34 -43 -17 -8 -6 -49 22 -82 35 -41 32 -38 93 -117 l47 -62
-26 -57 c-15 -32 -32 -74 -39 -93 -10 -31 -18 -37 -51 -42 -45 -8 -118 -17
-188 -24 -27 -3 -55 -10 -61 -15 -9 -8 -13 -52 -14 -146 l-2 -136 58 7 c32 3
67 8 78 10 23 5 117 15 185 20 25 2 68 7 95 10 28 3 83 8 124 10 41 3 76 6 77
8 1 1 5 27 8 59 25 224 202 445 426 530 101 39 145 46 254 44 117 -3 202 -24
296 -75 111 -59 191 -132 255 -231 62 -98 91 -176 108 -297 2 -12 5 -25 8 -28
3 -3 39 -7 80 -9 41 -3 99 -7 129 -10 30 -4 80 -9 110 -11 84 -9 142 -15 170
-20 14 -3 50 -7 81 -10 l57 -6 -3 69 c-1 37 -6 97 -11 133 -4 35 -7 67 -6 71
2 8 -22 16 -68 22 -102 12 -157 19 -170 22 -8 1 -25 3 -37 3 -17 1 -27 15 -49
74 -15 39 -33 81 -41 93 -12 19 -6 30 77 139 90 118 90 119 73 144 -63 99
-226 261 -325 325 l-28 18 -95 -72 c-52 -40 -100 -79 -106 -86 -16 -20 -38
-17 -95 10 -27 13 -66 29 -86 35 -21 7 -38 18 -39 24 0 7 -2 19 -3 27 -3 17
-14 101 -22 170 -7 62 -14 93 -20 87 -3 -3 -20 -1 -37 5 -31 10 -313 18 -372
11z"/>
</g>
</svg>
